<?xml version="1.0" encoding="utf-8"?>
<svg xmlns="http://www.w3.org/2000/svg" style="margin: auto; background: none; display: block; shape-rendering: auto;" width="280" height="53" preserveAspectRatio="xMidYMid">
<style type="text/css">
  text {
    text-anchor: middle; font-size: 33px; opacity: 0;
  }
</style>
<g style="transform-origin: 140px 26.5px; transform: scale(0.611111);">
<g transform="translate(140,26.5)">
  <g transform="translate(0,0)"><g class="path" style="transform: scale(0.91); transform-origin: -185.735px -4.2px; animation: 1s linear -0.605s infinite normal forwards running breath-5804de9d-df6a-453b-9267-fa050604d39a;"><path d="M17.55-0.59L17.55-0.59L17.55-0.59Q20.25-0.59 22.33-2.05L22.33-2.05L22.33-2.05Q24.41-3.51 24.41-6.45L24.41-6.45L24.41-6.45Q24.41-9.40 22.17-10.96L22.17-10.96L22.17-10.96Q19.93-12.53 15.79-13.69L15.79-13.69L15.79-13.69Q11.66-14.85 9.80-15.71L9.80-15.71L9.80-15.71Q7.94-16.58 6.26-17.98L6.26-17.98L6.26-17.98Q2.92-20.79 2.92-26.68L2.92-26.68L2.92-26.68Q2.92-31.48 6.34-34.94L6.34-34.94L6.34-34.94Q9.77-38.39 15.71-38.39L15.71-38.39L15.71-38.39Q18.58-38.39 21.68-37.56L21.68-37.56L21.68-37.56Q24.79-36.72 25.54-36.72L25.54-36.72L25.54-36.72Q26.30-36.72 26.89-37.80L26.89-37.80L27.49-37.80L27.86-26.89L27-26.89L27-26.89Q24.41-31.59 21.57-34.42L21.57-34.42L21.57-34.42Q18.74-37.26 15.42-37.26L15.42-37.26L15.42-37.26Q12.10-37.26 10.26-35.72L10.26-35.72L10.26-35.72Q8.42-34.18 8.42-31.62L8.42-31.62L8.42-31.62Q8.42-29.05 10.61-27.68L10.61-27.68L10.61-27.68Q12.80-26.30 15.98-25.43L15.98-25.43L15.98-25.43Q19.17-24.57 20.17-24.25L20.17-24.25L20.17-24.25Q21.17-23.92 22.65-23.36L22.65-23.36L22.65-23.36Q24.14-22.79 25.08-22.17L25.08-22.17L25.08-22.17Q26.03-21.55 27.08-20.60L27.08-20.60L27.08-20.60Q28.13-19.66 28.73-18.52L28.73-18.52L28.73-18.52Q30.19-15.93 30.19-12.37L30.19-12.37L30.19-12.37Q30.19-6.53 26.54-3.00L26.54-3.00L26.54-3.00Q22.90 0.54 16.96 0.54L16.96 0.54L16.96 0.54Q13.88 0.54 9.91-0.27L9.91-0.27L9.91-0.27Q5.94-1.08 5.51-1.08L5.51-1.08L5.51-1.08Q4.75-1.08 4.05 0.54L4.05 0.54L3.29 0.54L2.75-12.31L3.67-12.31L3.67-12.31Q6.05-7.61 9.75-4.10L9.75-4.10L9.75-4.10Q13.45-0.59 17.55-0.59" fill="#000000" stroke="none" stroke-width="none" transform="translate(-202.20501708984375,14.725001932779941)" style="fill: rgb(0, 0, 0);"></path></g><g class="path" style="transform: scale(0.91); transform-origin: -149.585px -4.175px; animation: 1s linear -0.55s infinite normal forwards running breath-5804de9d-df6a-453b-9267-fa050604d39a;"><path d="M33.53-36.77L33.53-37.80L50.38-37.80L50.38-36.77L47.25-36.77L47.25-20.03L58.00-20.03L58.00-36.77L54.81-36.77L54.81-37.80L71.71-37.80L71.71-36.77L68.53-36.77L68.53-1.03L71.71-1.03L71.71 0L54.81 0L54.81-1.03L58.00-1.03L58.00-18.63L47.25-18.63L47.25-1.03L50.38-1.03L50.38 0L33.53 0L33.53-1.03L36.72-1.03L36.72-36.77L33.53-36.77" fill="#000000" stroke="none" stroke-width="none" transform="translate(-202.20501708984375,14.725001932779941)" style="fill: rgb(0, 0, 0);"></path></g><g class="path" style="transform: scale(0.91); transform-origin: -110.945px -4.175px; animation: 1s linear -0.495s infinite normal forwards running breath-5804de9d-df6a-453b-9267-fa050604d39a;"><path d="M75.33-37.80L107.19-37.80L107.73-24.25L106.70-24.25L106.70-24.25Q104.33-31.43 102.49-34.05L102.49-34.05L102.49-34.05Q100.66-36.67 97.20-36.67L97.20-36.67L96.55-36.67L96.55-1.13L101.14-1.13L101.14 0L81.43 0L81.43-1.13L86.02-1.13L86.02-36.67L85.32-36.67L85.32-36.67Q81.86-36.67 79.97-33.94L79.97-33.94L79.97-33.94Q78.08-31.21 75.82-24.25L75.82-24.25L74.79-24.25L75.33-37.80" fill="#000000" stroke="none" stroke-width="none" transform="translate(-202.20501708984375,14.725001932779941)" style="fill: rgb(0, 0, 0);"></path></g><g class="path" style="transform: scale(0.91); transform-origin: -73.9px -4.2px; animation: 1s linear -0.44s infinite normal forwards running breath-5804de9d-df6a-453b-9267-fa050604d39a;"><path d="M135.16-16.69L135.16-16.69L135.16-20.68L135.16-20.68Q135.16-30.56 134.19-33.16L134.19-33.16L134.19-33.16Q133.11-36.13 131.11-36.83L131.11-36.83L131.11-36.83Q129.98-37.26 128.36-37.26L128.36-37.26L128.36-37.26Q126.74-37.26 125.58-36.83L125.58-36.83L125.58-36.83Q124.42-36.40 123.66-35.32L123.66-35.32L123.66-35.32Q122.90-34.24 122.45-33.05L122.45-33.05L122.45-33.05Q121.99-31.86 121.72-29.70L121.72-29.70L121.72-29.70Q121.39-26.57 121.39-20.47L121.39-20.47L121.39-16.58L121.39-16.58Q121.39-9.99 121.91-7.21L121.91-7.21L121.91-7.21Q122.42-4.43 123.17-3.24L123.17-3.24L123.17-3.24Q124.85-0.59 128.36-0.59L128.36-0.59L128.36-0.59Q132.62-0.59 133.89-4.18L133.89-4.18L133.89-4.18Q135.16-7.78 135.16-16.69zM128.25 0.54L128.25 0.54L128.25 0.54Q119.23 0.54 114.78-4.35L114.78-4.35L114.78-4.35Q110.32-9.23 110.32-18.50L110.32-18.50L110.32-18.50Q110.32-27.76 115.10-33.08L115.10-33.08L115.10-33.08Q119.88-38.39 128.63-38.39L128.63-38.39L128.63-38.39Q137.38-38.39 141.83-33.34L141.83-33.34L141.83-33.34Q146.29-28.30 146.29-19.01L146.29-19.01L146.29-19.01Q146.29-9.72 141.78-4.59L141.78-4.59L141.78-4.59Q137.27 0.54 128.25 0.54" fill="#000000" stroke="none" stroke-width="none" transform="translate(-202.20501708984375,14.725001932779941)" style="fill: rgb(0, 0, 0);"></path></g><g class="path" style="transform: scale(0.91); transform-origin: -34.535px -3.905px; animation: 1s linear -0.385s infinite normal forwards running breath-5804de9d-df6a-453b-9267-fa050604d39a;"><path d="M166.21-19.12L166.21-19.12L163.35-19.12L163.35-1.03L166.86-1.03L166.86 0L149.31 0L149.31-1.03L152.82-1.03L152.82-36.77L149.31-36.77L149.31-37.80L165.62-37.80L165.62-37.80Q172.64-37.80 175.58-37.07L175.58-37.07L175.58-37.07Q178.52-36.34 179.71-35.32L179.71-35.32L179.71-35.32Q182.30-33.21 182.30-28.62L182.30-28.62L182.30-28.62Q182.30-24.03 180.04-22.06L180.04-22.06L180.04-22.06Q177.77-20.09 173.12-19.71L173.12-19.71L173.12-19.55L173.12-19.55Q177.50-18.95 179.23-16.96L179.23-16.96L179.23-16.96Q180.95-14.96 180.95-10.26L180.95-10.26L180.95-7.40L180.95-7.40Q180.95-4.59 181.25-3.62L181.25-3.62L181.25-3.62Q181.55-2.65 182.52-2.65L182.52-2.65L182.52-2.65Q183.49-2.65 184.06-3.54L184.06-3.54L184.06-3.54Q184.63-4.43 185.11-7.29L185.11-7.29L186.03-7.18L186.03-7.18Q185.44-2.59 183.95-1.03L183.95-1.03L183.95-1.03Q182.47 0.54 178.04 0.54L178.04 0.54L178.04 0.54Q173.61 0.54 171.75-1.54L171.75-1.54L171.75-1.54Q169.88-3.62 169.88-9.34L169.88-9.34L169.88-13.28L169.88-13.28Q169.88-16.31 169.10-17.71L169.10-17.71L169.10-17.71Q168.32-19.12 166.21-19.12zM165.13-36.77L163.35-36.77L163.35-20.14L165.08-20.14L165.08-20.14Q168.16-20.14 169.64-22.03L169.64-22.03L169.64-22.03Q171.13-23.92 171.13-28.19L171.13-28.19L171.13-29.75L171.13-29.75Q171.13-34.02 169.69-35.40L169.69-35.40L169.69-35.40Q168.26-36.77 165.13-36.77L165.13-36.77" fill="#000000" stroke="none" stroke-width="none" transform="translate(-202.20501708984375,14.725001932779941)" style="fill: rgb(0, 0, 0);"></path></g><g class="path" style="transform: scale(0.91); transform-origin: -7.89002px 10.565px; animation: 1s linear -0.33s infinite normal forwards running breath-5804de9d-df6a-453b-9267-fa050604d39a;"><path d="M194.26 0.54L194.26 0.54L194.26 0.54Q191.92 0.54 190.75-0.84L190.75-0.84L190.75-0.84Q189.59-2.21 189.59-4.18L189.59-4.18L189.59-4.18Q189.59-6.16 190.81-7.51L190.81-7.51L190.81-7.51Q192.02-8.86 194.24-8.86L194.24-8.86L194.24-8.86Q196.45-8.86 197.75-7.72L197.75-7.72L197.75-7.72Q199.04-6.59 199.04-4.32L199.04-4.32L199.04-4.32Q199.04-2.05 197.83-0.76L197.83-0.76L197.83-0.76Q196.61 0.54 194.26 0.54" fill="#000000" stroke="none" stroke-width="none" transform="translate(-202.20501708984375,14.725001932779941)" style="fill: rgb(0, 0, 0);"></path></g><g class="path" style="transform: scale(0.91); transform-origin: 17.305px -4.2px; animation: 1s linear -0.275s infinite normal forwards running breath-5804de9d-df6a-453b-9267-fa050604d39a;"><path d="M223.07-37.31L223.07-37.31L223.07-37.31Q214.70-37.31 214.70-21.17L214.70-21.17L214.70-16.90L214.70-16.90Q214.70-9.23 216.92-4.89L216.92-4.89L216.92-4.89Q219.13-0.54 223.45-0.54L223.45-0.54L223.45-0.54Q229.39-0.54 234.36-12.10L234.36-12.10L235.33-12.10L234.95-0.05L234.36-0.05L234.36-0.05Q234.04-0.65 233.77-0.89L233.77-0.89L233.77-0.89Q233.50-1.13 232.98-1.13L232.98-1.13L232.98-1.13Q232.47-1.13 229.07-0.30L229.07-0.30L229.07-0.30Q225.67 0.54 222.16 0.54L222.16 0.54L222.16 0.54Q213.35 0.54 208.52-4.21L208.52-4.21L208.52-4.21Q203.69-8.96 203.69-18.50L203.69-18.50L203.69-18.50Q203.69-28.03 208.74-33.21L208.74-33.21L208.74-33.21Q213.79-38.39 222.32-38.39L222.32-38.39L222.32-38.39Q225.61-38.39 228.77-37.56L228.77-37.56L228.77-37.56Q231.93-36.72 232.47-36.72L232.47-36.72L232.47-36.72Q233.01-36.72 233.28-36.96L233.28-36.96L233.28-36.96Q233.55-37.21 233.87-37.80L233.87-37.80L234.47-37.80L234.90-26.08L233.93-26.08L233.93-26.08Q231.50-31.54 228.93-34.42L228.93-34.42L228.93-34.42Q226.37-37.31 223.07-37.31" fill="#000000" stroke="none" stroke-width="none" transform="translate(-202.20501708984375,14.725001932779941)" style="fill: rgb(0, 0, 0);"></path></g><g class="path" style="transform: scale(0.91); transform-origin: 55.105px -4.2px; animation: 1s linear -0.22s infinite normal forwards running breath-5804de9d-df6a-453b-9267-fa050604d39a;"><path d="M264.17-16.69L264.17-16.69L264.17-20.68L264.17-20.68Q264.17-30.56 263.20-33.16L263.20-33.16L263.20-33.16Q262.12-36.13 260.12-36.83L260.12-36.83L260.12-36.83Q258.98-37.26 257.36-37.26L257.36-37.26L257.36-37.26Q255.74-37.26 254.58-36.83L254.58-36.83L254.58-36.83Q253.42-36.40 252.67-35.32L252.67-35.32L252.67-35.32Q251.91-34.24 251.45-33.05L251.45-33.05L251.45-33.05Q250.99-31.86 250.72-29.70L250.72-29.70L250.72-29.70Q250.40-26.57 250.40-20.47L250.40-20.47L250.40-16.58L250.40-16.58Q250.40-9.99 250.91-7.21L250.91-7.21L250.91-7.21Q251.42-4.43 252.18-3.24L252.18-3.24L252.18-3.24Q253.85-0.59 257.36-0.59L257.36-0.59L257.36-0.59Q261.63-0.59 262.90-4.18L262.90-4.18L262.90-4.18Q264.17-7.78 264.17-16.69zM257.26 0.54L257.26 0.54L257.26 0.54Q248.24 0.54 243.78-4.35L243.78-4.35L243.78-4.35Q239.33-9.23 239.33-18.50L239.33-18.50L239.33-18.50Q239.33-27.76 244.11-33.08L244.11-33.08L244.11-33.08Q248.89-38.39 257.63-38.39L257.63-38.39L257.63-38.39Q266.38-38.39 270.84-33.34L270.84-33.34L270.84-33.34Q275.29-28.30 275.29-19.01L275.29-19.01L275.29-19.01Q275.29-9.72 270.78-4.59L270.78-4.59L270.78-4.59Q266.27 0.54 257.26 0.54" fill="#000000" stroke="none" stroke-width="none" transform="translate(-202.20501708984375,14.725001932779941)" style="fill: rgb(0, 0, 0);"></path></g><g class="path" style="transform: scale(0.91); transform-origin: 97.985px -4.175px; animation: 1s linear -0.165s infinite normal forwards running breath-5804de9d-df6a-453b-9267-fa050604d39a;"><path d="M300.62-9.99L307.10-37.80L321.52-37.80L321.52-36.77L318.55-36.77L318.55-1.03L321.52-1.03L321.52 0L305.05 0L305.05-1.03L308.02-1.03L308.02-34.78L307.80-34.78L299.70 0L292.95 0L283.45-34.94L283.23-34.94L283.23-1.03L286.20-1.03L286.20 0L278.86 0L278.86-1.03L281.83-1.03L281.83-36.77L278.86-36.77L278.86-37.80L293.44-37.80L300.62-9.99" fill="#000000" stroke="none" stroke-width="none" transform="translate(-202.20501708984375,14.725001932779941)" style="fill: rgb(0, 0, 0);"></path></g><g class="path" style="transform: scale(0.91); transform-origin: 127.82px 10.565px; animation: 1s linear -0.11s infinite normal forwards running breath-5804de9d-df6a-453b-9267-fa050604d39a;"><path d="M329.97 0.54L329.97 0.54L329.97 0.54Q327.62 0.54 326.46-0.84L326.46-0.84L326.46-0.84Q325.30-2.21 325.30-4.18L325.30-4.18L325.30-4.18Q325.30-6.16 326.51-7.51L326.51-7.51L326.51-7.51Q327.73-8.86 329.94-8.86L329.94-8.86L329.94-8.86Q332.15-8.86 333.45-7.72L333.45-7.72L333.45-7.72Q334.75-6.59 334.75-4.32L334.75-4.32L334.75-4.32Q334.75-2.05 333.53-0.76L333.53-0.76L333.53-0.76Q332.32 0.54 329.97 0.54" fill="#000000" stroke="none" stroke-width="none" transform="translate(-202.20501708984375,14.725001932779941)" style="fill: rgb(0, 0, 0);"></path></g><g class="path" style="transform: scale(0.91); transform-origin: 152.465px -3.905px; animation: 1s linear -0.055s infinite normal forwards running breath-5804de9d-df6a-453b-9267-fa050604d39a;"><path d="M350.73-11.50L350.73-11.50Q350.73-6.53 352.43-3.89L352.43-3.89L352.43-3.89Q354.13-1.24 358.56-1.24L358.56-1.24L358.56-1.24Q362.99-1.24 365.36-4.00L365.36-4.00L365.36-4.00Q367.74-6.75 367.74-12.37L367.74-12.37L367.74-36.77L364.23-36.77L364.23-37.80L372.11-37.80L372.11-36.77L369.14-36.77L369.14-12.74L369.14-12.74Q369.14-6.05 366.17-2.75L366.17-2.75L366.17-2.75Q363.20 0.54 355.67 0.54L355.67 0.54L355.67 0.54Q348.14 0.54 344.17-2.59L344.17-2.59L344.17-2.59Q340.20-5.72 340.20-13.34L340.20-13.34L340.20-36.77L337.23-36.77L337.23-37.80L354.24-37.80L354.24-36.77L350.73-36.77L350.73-11.50" fill="#000000" stroke="none" stroke-width="none" transform="translate(-202.20501708984375,14.725001932779941)" style="fill: rgb(0, 0, 0);"></path></g><g class="path" style="transform: scale(0.91); transform-origin: 186.54px -4.335px; animation: 1s linear 0s infinite normal forwards running breath-5804de9d-df6a-453b-9267-fa050604d39a;"><path d="M389.50-1.03L393.34-1.03L389.39-12.69L378.70-12.69L374.54-1.03L378.59-1.03L378.59 0L370.33 0L370.33-1.03L372.87-1.03L386.64-38.12L391.07-38.12L404.68-1.03L407.16-1.03L407.16 0L389.50 0L389.50-1.03zM388.96-13.88L384.26-28.03L379.19-13.88L388.96-13.88" fill="#000000" stroke="none" stroke-width="none" transform="translate(-202.20501708984375,14.725001932779941)" style="fill: rgb(0, 0, 0);"></path></g></g>
</g>
</g>
<style id="breath-5804de9d-df6a-453b-9267-fa050604d39a" data-anikit="">@keyframes breath-5804de9d-df6a-453b-9267-fa050604d39a
{
  0% {
    animation-timing-function: cubic-bezier(0.9647,0.2413,-0.0705,0.7911);
    transform: scale(0.9099999999999999);
  }
  51% {
    animation-timing-function: cubic-bezier(0.9226,0.2631,-0.0308,0.7628);
    transform: scale(1.02994);
  }
  100% {
    transform: scale(0.9099999999999999);
  }
}</style></svg>